<svg xmlns="http://www.w3.org/2000/svg" width="44" height="48" fill="none" viewBox="0 0 44 48"><path fill="#D3D3D3" d="M20.589 27.25a1.593 1.593 0 0 1-.605-1.25c0-.884.722-1.6 1.613-1.6.89 0 1.613.716 1.613 1.6 0 .505-.236.956-.605 1.25V30h-2.016v-2.75z"/><path fill="#D3D3D3" fill-rule="evenodd" d="M14.39 20.4c.136-1.118.565-2.491 1.486-3.686C17.062 15.176 19.016 14 22 14c2.985 0 4.938 1.176 6.124 2.714.921 1.195 1.35 2.568 1.486 3.686h2.47V34H11.92V20.4h2.47zm1.627 0c.131-.84.471-1.847 1.14-2.714C18.027 16.557 19.5 15.6 22 15.6s3.972.957 4.843 2.086c.669.867 1.009 1.873 1.14 2.714H16.017zM13.533 22v10.4h16.934V22H13.533z" clip-rule="evenodd"/></svg>