<svg xmlns="http://www.w3.org/2000/svg" width="44" height="48" fill="none" viewBox="0 0 44 48"><path fill="#D3D3D3" d="M31 24a9.5 9.5 0 1 1-19 0 9.5 9.5 0 0 1 19 0z"/><path fill="#fff" d="M21.5 26.712a2.712 2.712 0 1 0 0-5.424 2.712 2.712 0 0 0 0 5.424z"/><path fill="#fff" fill-rule="evenodd" d="M21.5 19.239c-2.852 0-4.804 1.553-6.237 2.692-.229.182-.444.354-.648.507l-.462.346.733.733c.42.882 1.212 2.147 2.293 3.212 1.11 1.094 2.586 2.032 4.321 2.032 1.735 0 3.21-.938 4.321-2.032a11.958 11.958 0 0 0 2.292-3.212l.733-.733-.46-.346c-.205-.153-.42-.325-.65-.507-1.432-1.14-3.384-2.692-6.236-2.692zm-5.781 3.696l-.048-.048.253-.2c1.442-1.139 3.1-2.448 5.576-2.448 2.475 0 4.134 1.31 5.576 2.448l.253.2-.048.048-.037.08a10.9 10.9 0 0 1-2.124 3.001c-1.02 1.004-2.256 1.745-3.62 1.745-1.364 0-2.6-.74-3.62-1.745a10.916 10.916 0 0 1-2.124-3l-.037-.081z" clip-rule="evenodd"/></svg>