<svg xmlns="http://www.w3.org/2000/svg" width="44" height="48" fill="none" viewBox="0 0 44 48"><path fill="#D3D3D3" d="M31.425 23.925a9.5 9.5 0 1 1-19 0 9.5 9.5 0 0 1 19 0z"/><path fill="#fff" fill-rule="evenodd" d="M14.922 23.17c.413-.131.859.08.998.472l.001.004.01.026.049.118a5.7 5.7 0 0 0 .22.451c.207.382.53.89.997 1.396.923 1.003 2.397 1.994 4.685 1.994 2.287 0 3.762-.991 4.685-1.994.466-.506.79-1.014.996-1.396a5.813 5.813 0 0 0 .28-.595v-.003l.001-.001c.139-.392.585-.603.998-.472.414.13.637.555.5.948l-.75-.237.75.237-.001.002-.001.002-.002.005-.006.015a5.144 5.144 0 0 1-.087.217 7.61 7.61 0 0 1-.277.568 8.482 8.482 0 0 1-1.212 1.698c-1.15 1.248-3.03 2.506-5.874 2.506s-4.725-1.258-5.874-2.506a8.482 8.482 0 0 1-1.212-1.698 7.228 7.228 0 0 1-.365-.785l-.005-.015-.002-.005v-.002c-.001 0-.001-.002.748-.239l-.75.237c-.137-.393.086-.817.5-.948z" clip-rule="evenodd"/></svg>