<svg width="44" height="48" viewBox="0 0 44 48" fill="none" xmlns="http://www.w3.org/2000/svg">
  <path d="M31 24C31 29.2467 26.7467 33.5 21.5 33.5C16.2533 33.5 12 29.2467 12 24C12 18.7533 16.2533 14.5 21.5 14.5C26.7467 14.5 31 18.7533 31 24Z" fill="#D3D3D3"/>
  <path d="M21.5 26.7116C22.9975 26.7116 24.2116 25.4976 24.2116 24C24.2116 22.5024 22.9975 21.2884 21.5 21.2884C20.0024 21.2884 18.7884 22.5024 18.7884 24C18.7884 25.4976 20.0024 26.7116 21.5 26.7116Z" fill="white"/>
  <path fill-rule="evenodd" clip-rule="evenodd" d="M21.5 19.2389C18.6481 19.2389 16.6958 20.7918 15.2634 21.9312C15.0344 22.1133 14.8187 22.2849 14.6147 22.4379L14.1535 22.7838L14.8865 23.5168C15.3059 24.3991 16.0976 25.6642 17.1786 26.7289C18.2897 27.8231 19.7647 28.7611 21.5 28.7611C23.2352 28.7611 24.7103 27.8231 25.8214 26.7289C26.9024 25.6642 27.6941 24.3991 28.1135 23.5168L28.8465 22.7838L28.3853 22.4379C28.1813 22.2849 27.9656 22.1133 27.7366 21.9312C26.3042 20.7918 24.3519 19.2389 21.5 19.2389ZM15.7187 22.9348L15.6706 22.8867C15.7545 22.8209 15.839 22.7542 15.9242 22.6869C17.3663 21.5482 19.0246 20.2389 21.5 20.2389C23.9754 20.2389 25.6336 21.5482 27.0758 22.6869L27.0766 22.6875C27.1616 22.7546 27.2458 22.8211 27.3294 22.8867L27.2813 22.9348L27.2439 23.0157C26.8775 23.8097 26.1352 25.0162 25.1197 26.0164C24.1002 27.0204 22.8637 27.7611 21.5 27.7611C20.1363 27.7611 18.8998 27.0204 17.8803 26.0164C16.8648 25.0162 16.1225 23.8097 15.7561 23.0157L15.7187 22.9348Z" fill="white"/>
</svg>