<svg width="44" height="48" viewBox="0 0 44 48" fill="none" xmlns="http://www.w3.org/2000/svg">
  <path d="M31.4252 23.9252C31.4252 29.1719 27.1719 33.4252 21.9252 33.4252C16.6785 33.4252 12.4252 29.1719 12.4252 23.9252C12.4252 18.6785 16.6785 14.4252 21.9252 14.4252C27.1719 14.4252 31.4252 18.6785 31.4252 23.9252Z" fill="#D3D3D3"/>
  <path fill-rule="evenodd" clip-rule="evenodd" d="M14.9219 23.1697C15.3348 23.0389 15.781 23.2503 15.9198 23.6419L15.9212 23.6458C15.9229 23.6505 15.9262 23.6593 15.9311 23.6718C15.9408 23.6968 15.9569 23.7368 15.9797 23.7896C16.0254 23.8953 16.0979 24.0515 16.2006 24.2415C16.4069 24.6228 16.7304 25.1311 17.1966 25.6372C18.1197 26.6395 19.5944 27.631 21.8819 27.631C24.1694 27.631 25.6441 26.6395 26.5672 25.6372C27.0334 25.1311 27.3569 24.6228 27.5632 24.2415C27.6659 24.0515 27.7384 23.8953 27.7841 23.7896C27.8069 23.7368 27.823 23.6968 27.8327 23.6718C27.8376 23.6593 27.8409 23.6505 27.8426 23.6458L27.8435 23.6434C27.8437 23.6428 27.8439 23.6423 27.8441 23.6418C27.9828 23.2503 28.429 23.0389 28.8419 23.1697C29.2555 23.3006 29.479 23.7254 29.3412 24.1183L28.5922 23.8811C29.3412 24.1183 29.3413 24.1179 29.3412 24.1183L29.3406 24.1199L29.3399 24.1219L29.3381 24.1271L29.3325 24.1423C29.3279 24.1546 29.3217 24.1711 29.3138 24.1916C29.2979 24.2325 29.275 24.2892 29.2446 24.3594C29.1839 24.4998 29.093 24.6951 28.9675 24.927C28.7174 25.3894 28.3255 26.0061 27.7555 26.6249C26.6063 27.8726 24.7259 29.131 21.8819 29.131C19.0379 29.131 17.1575 27.8726 16.0083 26.6249C15.4383 26.0061 15.0464 25.3894 14.7963 24.927C14.6708 24.6951 14.5799 24.4998 14.5192 24.3594C14.4888 24.2892 14.4659 24.2325 14.45 24.1916C14.4421 24.1711 14.4358 24.1546 14.4313 24.1423L14.4257 24.1271L14.4239 24.1219L14.4232 24.1199C14.423 24.1195 14.4226 24.1183 15.1716 23.8811L14.4226 24.1183C14.2847 23.7254 14.5083 23.3006 14.9219 23.1697Z" fill="white"/>
</svg>