<svg width="44" height="192" viewBox="0 0 44 192" fill="none" xmlns="http://www.w3.org/2000/svg">
  <path fill-rule="evenodd" clip-rule="evenodd" d="M12 16H32V32H12V16ZM14.7314 17.6L22 24.8686L29.2686 17.6H14.7314ZM30.4 18.7314L25.1314 24L30.4 29.2686V18.7314ZM29.2686 30.4L24 25.1314L22 27.1314L20 25.1314L14.7314 30.4H29.2686ZM13.6 29.2686V18.7314L18.8686 24L13.6 29.2686Z" fill="#D3D3D3"/>
  <path d="M20.5888 75.2491C20.2201 74.9558 19.984 74.5053 19.984 74C19.984 73.1163 20.7061 72.4 21.5968 72.4C22.4875 72.4 23.2096 73.1163 23.2096 74C23.2096 74.5053 22.9735 74.9558 22.6048 75.2491V78H20.5888V75.2491Z" fill="#D3D3D3"/>
  <path fill-rule="evenodd" clip-rule="evenodd" d="M14.3898 68.4C14.5261 67.2818 14.9547 65.9086 15.876 64.7139C17.0617 63.1763 19.0154 62 22 62C24.9846 62 26.9383 63.1763 28.124 64.7139C29.0453 65.9086 29.4739 67.2818 29.6102 68.4H32.08V82H11.92V68.4H14.3898ZM16.0173 68.4C16.1481 67.5593 16.4884 66.5531 17.1569 65.6861C18.0275 64.5571 19.501 63.6 22 63.6C24.4989 63.6 25.9724 64.5571 26.843 65.6861C27.5116 66.5531 27.8519 67.5593 27.9826 68.4H16.0173ZM13.5328 70V80.4H30.4672V70H13.5328Z" fill="#D3D3D3"/>
  <path d="M31.4252 119.925C31.4252 125.172 27.1719 129.425 21.9252 129.425C16.6785 129.425 12.4252 125.172 12.4252 119.925C12.4252 114.678 16.6785 110.425 21.9252 110.425C27.1719 110.425 31.4252 114.678 31.4252 119.925Z" fill="#D3D3D3"/>
  <path fill-rule="evenodd" clip-rule="evenodd" d="M14.9219 119.17C15.3348 119.039 15.781 119.25 15.9198 119.642L15.9212 119.646C15.9229 119.651 15.9262 119.659 15.9311 119.672C15.9408 119.697 15.9569 119.737 15.9797 119.79C16.0254 119.895 16.0979 120.052 16.2006 120.241C16.4069 120.623 16.7304 121.131 17.1966 121.637C18.1197 122.639 19.5944 123.631 21.8819 123.631C24.1694 123.631 25.6441 122.639 26.5672 121.637C27.0334 121.131 27.3569 120.623 27.5632 120.241C27.6659 120.052 27.7384 119.895 27.7841 119.79C27.8069 119.737 27.823 119.697 27.8327 119.672C27.8376 119.659 27.8409 119.651 27.8426 119.646L27.8435 119.643C27.8437 119.643 27.8439 119.642 27.8441 119.642C27.9828 119.25 28.429 119.039 28.8419 119.17C29.2555 119.301 29.479 119.725 29.3412 120.118L28.5922 119.881C29.3412 120.118 29.3413 120.118 29.3412 120.118L29.3406 120.12L29.3399 120.122L29.3381 120.127L29.3325 120.142C29.3279 120.155 29.3217 120.171 29.3138 120.192C29.2979 120.232 29.275 120.289 29.2446 120.359C29.1839 120.5 29.093 120.695 28.9675 120.927C28.7174 121.389 28.3255 122.006 27.7555 122.625C26.6063 123.873 24.7259 125.131 21.8819 125.131C19.0379 125.131 17.1575 123.873 16.0083 122.625C15.4383 122.006 15.0464 121.389 14.7963 120.927C14.6708 120.695 14.5799 120.5 14.5192 120.359C14.4888 120.289 14.4659 120.232 14.45 120.192C14.4421 120.171 14.4358 120.155 14.4313 120.142L14.4257 120.127L14.4239 120.122L14.4232 120.12C14.423 120.12 14.4226 120.118 15.1716 119.881L14.4226 120.118C14.2847 119.725 14.5083 119.301 14.9219 119.17Z" fill="white"/>
  <path d="M31 168C31 173.247 26.7467 177.5 21.5 177.5C16.2533 177.5 12 173.247 12 168C12 162.753 16.2533 158.5 21.5 158.5C26.7467 158.5 31 162.753 31 168Z" fill="#D3D3D3"/>
  <path d="M21.5 170.712C22.9975 170.712 24.2116 169.498 24.2116 168C24.2116 166.502 22.9975 165.288 21.5 165.288C20.0024 165.288 18.7884 166.502 18.7884 168C18.7884 169.498 20.0024 170.712 21.5 170.712Z" fill="white"/>
  <path fill-rule="evenodd" clip-rule="evenodd" d="M21.5 163.239C18.6481 163.239 16.6958 164.792 15.2634 165.931C15.0344 166.113 14.8187 166.285 14.6147 166.438L14.1535 166.784L14.8865 167.517C15.3059 168.399 16.0976 169.664 17.1786 170.729C18.2897 171.823 19.7647 172.761 21.5 172.761C23.2352 172.761 24.7103 171.823 25.8214 170.729C26.9024 169.664 27.6941 168.399 28.1135 167.517L28.8465 166.784L28.3853 166.438C28.1813 166.285 27.9656 166.113 27.7366 165.931C26.3042 164.792 24.3519 163.239 21.5 163.239ZM15.7187 166.935L15.6706 166.887C15.7545 166.821 15.839 166.754 15.9242 166.687C17.3663 165.548 19.0246 164.239 21.5 164.239C23.9754 164.239 25.6336 165.548 27.0758 166.687L27.0766 166.688C27.1616 166.755 27.2458 166.821 27.3294 166.887L27.2813 166.935L27.2439 167.016C26.8775 167.81 26.1352 169.016 25.1197 170.016C24.1002 171.02 22.8637 171.761 21.5 171.761C20.1363 171.761 18.8998 171.02 17.8803 170.016C16.8648 169.016 16.1225 167.81 15.7561 167.016L15.7187 166.935Z" fill="white"/>
</svg>