<svg width="44" height="48" viewBox="0 0 44 48" fill="none" xmlns="http://www.w3.org/2000/svg">
  <path d="M20.5888 27.2491C20.2201 26.9558 19.984 26.5053 19.984 26C19.984 25.1163 20.7061 24.4 21.5968 24.4C22.4875 24.4 23.2096 25.1163 23.2096 26C23.2096 26.5053 22.9735 26.9558 22.6048 27.2491V30H20.5888V27.2491Z" fill="#D3D3D3"/>
  <path fill-rule="evenodd" clip-rule="evenodd" d="M14.3898 20.4C14.5261 19.2818 14.9547 17.9086 15.876 16.7139C17.0617 15.1763 19.0154 14 22 14C24.9846 14 26.9383 15.1763 28.124 16.7139C29.0453 17.9086 29.4739 19.2818 29.6102 20.4H32.08V34H11.92V20.4H14.3898ZM16.0173 20.4C16.1481 19.5593 16.4884 18.5531 17.1569 17.6861C18.0275 16.5571 19.501 15.6 22 15.6C24.4989 15.6 25.9724 16.5571 26.843 17.6861C27.5116 18.5531 27.8519 19.5593 27.9826 20.4H16.0173ZM13.5328 22V32.4H30.4672V22H13.5328Z" fill="#D3D3D3"/>
</svg>