<svg width="246" height="168" viewBox="0 0 246 168" fill="none" xmlns="http://www.w3.org/2000/svg">
<g clip-path="url(#clip0_2701_987)">
<path fill-rule="evenodd" clip-rule="evenodd" d="M28.4956 7.77379L23.5797 11.9774C22.9412 10.5304 21.9048 9.29776 20.593 8.42528C19.2812 7.55281 17.7488 7.07696 16.1771 7.054C10.7466 7.054 7.60265 9.127 7.60265 15.2596V23.8972C7.60265 26.2005 8.54584 32.2756 14.6908 32.2756C16.4514 32.2699 18.1818 31.8154 19.721 30.9546C21.2603 30.0937 22.5582 28.8545 23.4939 27.3522L28.7243 31.3543C27.2525 33.7148 25.2004 35.6523 22.7667 36.979C20.3331 38.3057 17.6005 38.9765 14.8337 38.9265C12.913 39.0456 10.9885 38.7639 9.18085 38.0989C7.3732 37.434 5.72135 36.4001 4.32878 35.0622C2.93621 33.7242 1.83292 32.111 1.08805 30.3235C0.343171 28.5361 -0.0272439 26.6129 5.13883e-06 24.6746C5.13883e-06 18.4555 0.200074 19.6072 0.200074 13.5321C0.330279 10.1798 1.69724 6.99699 4.0336 4.60615C6.36996 2.21532 9.50767 0.788455 12.833 0.604637C15.8553 0.0986941 18.9586 0.510289 21.7479 1.787C24.5371 3.06371 26.8861 5.14777 28.4956 7.77379Z" fill="#5E2E27"/>
<path fill-rule="evenodd" clip-rule="evenodd" d="M68.281 1.26683H75.6835C75.6835 1.26683 75.6835 18.1964 75.6835 22.4C75.6835 26.6036 77.3127 32.3907 83.0004 32.3907C88.6881 32.3907 90.946 29.7707 90.946 22.6015V1.49716H98.3772V38.7249H91.8892V35.3563C88.7784 37.7847 84.9636 39.1196 81.0283 39.1568C77.5762 39.0366 74.3083 37.5586 71.9253 35.0397C69.5423 32.5207 68.234 29.1615 68.281 25.6823C68.281 17.8797 68.1952 1.26683 68.281 1.26683Z" fill="#5E2E27"/>
<path fill-rule="evenodd" clip-rule="evenodd" d="M206.986 39.1568H199.527C199.527 39.1568 199.527 22.2273 199.527 18.0237C199.527 13.8201 197.898 8.03292 192.21 8.03292C186.522 8.03292 184.264 11.9774 184.264 18.7435V38.8977H176.976V1.69873H183.35V5.06737C183.35 5.06737 185.379 1.00773 193.41 1.26686C195.196 1.19116 196.978 1.48635 198.646 2.13408C200.314 2.78181 201.832 3.76823 203.105 5.032C204.379 6.29578 205.38 7.8099 206.048 9.48023C206.716 11.1506 207.035 12.9414 206.986 14.7414C206.986 22.5152 206.986 39.1568 206.986 39.1568Z" fill="#C7CD1D"/>
<path fill-rule="evenodd" clip-rule="evenodd" d="M44.9871 0.547073H48.817C52.2182 0.569907 55.4719 1.94896 57.8663 4.38249C60.2606 6.81602 61.6005 10.1059 61.5929 13.5322V25.7975C61.5929 29.2237 60.2457 32.5105 57.8461 34.9386C55.4464 37.3668 52.1896 38.7385 48.7884 38.7538H44.9871C41.5882 38.731 38.3359 37.3568 35.9378 34.9303C33.5397 32.5038 32.1901 29.2214 32.1826 25.7975V13.5322C32.1901 10.1082 33.5397 6.82579 35.9378 4.3993C38.3359 1.9728 41.5882 0.598628 44.9871 0.57586V0.547073ZM45.5016 7.05401C43.6049 7.27182 41.8678 8.22772 40.661 9.71773C39.4542 11.2077 38.8733 13.1139 39.0422 15.0293V24.2427C38.8733 26.1582 39.4542 28.0643 40.661 29.5543C41.8678 31.0443 43.6049 32.0002 45.5016 32.218H48.3597C50.2564 32.0002 51.9935 31.0443 53.2003 29.5543C54.407 28.0643 54.988 26.1582 54.8191 24.2427V15.0293C54.988 13.1139 54.407 11.2077 53.2003 9.71773C51.9935 8.22772 50.2564 7.27182 48.3597 7.05401H45.5016Z" fill="#5E2E27"/>
<path fill-rule="evenodd" clip-rule="evenodd" d="M105.465 1.49718V53.6679H113.497V36.3928C113.497 36.3928 115.154 39.0129 122.471 39.0129C125.904 38.9888 129.199 37.6472 131.684 35.2613C134.17 32.8754 135.658 29.6248 135.847 26.1717V13.5321C135.847 9.8468 132.732 1.32443 124.415 0.921342C116.098 0.518257 113.697 2.73523 112.668 4.89461V1.38201H105.551L105.465 1.49718ZM119.327 7.08278H122.986C124.882 7.30059 126.619 8.2565 127.826 9.74651C129.033 11.2365 129.614 13.1426 129.445 15.0581V24.2715C129.614 26.187 129.033 28.0931 127.826 29.5831C126.619 31.0731 124.882 32.029 122.986 32.2468H119.327C117.431 32.029 115.694 31.0731 114.487 29.5831C113.28 28.0931 112.699 26.187 112.868 24.2715V15.0581C112.691 13.1379 113.268 11.2244 114.476 9.72809C115.684 8.23175 117.425 7.27174 119.327 7.05399V7.08278Z" fill="#E52330"/>
<path fill-rule="evenodd" clip-rule="evenodd" d="M143.164 4.00204L146.194 9.0406C148.897 7.32107 152.115 6.61756 155.283 7.05397C156.294 7.03764 157.297 7.24045 158.224 7.64864C159.151 8.05683 159.98 8.66088 160.654 9.41988C161.329 10.1789 161.834 11.0751 162.135 12.0479C162.436 13.0206 162.527 14.0472 162.399 15.0581C159.826 13.4818 156.83 12.7476 153.825 12.9563C151.141 12.8747 148.498 13.6415 146.269 15.1493C144.039 16.657 142.334 18.83 141.392 21.3635C140.249 25.999 140.335 36.8247 149.538 38.6385C158.741 40.4524 163 35.3851 163 35.3851V38.8689H169.259V12.3229C169.259 -0.921348 150.995 -3.16711 143.05 4.03083L143.164 4.00204ZM154.339 18.9738H155.283C156.943 18.9738 158.535 19.6381 159.709 20.8206C160.883 22.0031 161.542 23.6069 161.542 25.2792V26.546C161.542 28.2183 160.883 29.8221 159.709 31.0046C158.535 32.1871 156.943 32.8514 155.283 32.8514H154.339C152.682 32.8438 151.094 32.1771 149.922 30.9962C148.75 29.8154 148.088 28.216 148.08 26.546V25.2792C148.08 23.6069 148.74 22.0031 149.913 20.8206C151.087 19.6381 152.679 18.9738 154.339 18.9738Z" fill="#FBBC43"/>
<path fill-rule="evenodd" clip-rule="evenodd" d="M236.454 3.88692C237.578 2.54209 239.099 1.5936 240.795 1.17936C242.492 0.765119 244.275 0.906713 245.886 1.58356V7.16918C244.856 6.82216 243.755 6.74849 242.688 6.95527C241.622 7.16205 240.626 7.64229 239.798 8.34964C240.652 10.1481 241.101 12.1144 241.113 14.108V14.108C241.197 17.4689 239.958 20.727 237.666 23.1707C235.374 25.6144 232.216 27.0453 228.88 27.1507C224.593 27.1507 223.163 27.4386 219.334 32.909C218.733 34.0607 219.791 33.6 219.791 33.6C224.69 32.0012 229.91 31.6744 234.968 32.6499C237.695 33.1478 240.177 34.5534 242.017 36.6416C243.857 38.7298 244.947 41.3797 245.114 44.1666C245.285 50.2993 235.968 55.9137 235.968 55.9137L232.767 50.5296C235.825 47.4201 239.912 45.3471 236.025 41.0571C232.138 36.7671 222.563 39.0993 218.076 40.107C213.589 41.1147 212.588 36.1913 212.988 32.4771C213.355 30.9364 214.025 29.4853 214.958 28.2094C215.89 26.9336 217.067 25.8589 218.419 25.0489C216.647 23.8256 215.199 22.1835 214.202 20.2661C213.206 18.3488 212.691 16.2146 212.703 14.0504C212.618 10.6895 213.857 7.43144 216.149 4.98769C218.441 2.54395 221.6 1.11314 224.936 1.00774H228.908C231.634 1.0222 234.271 1.9889 236.368 3.74295L236.454 3.88692ZM226.479 7.11159C224.643 7.02519 222.847 7.67237 221.483 8.91243C220.118 10.1525 219.294 11.8852 219.191 13.7337V15.0581C219.294 16.9067 220.118 18.6393 221.483 19.8794C222.847 21.1194 224.643 21.7666 226.479 21.6802H227.594C229.43 21.7666 231.225 21.1194 232.59 19.8794C233.955 18.6393 234.778 16.9067 234.882 15.0581V13.7337C234.778 11.8852 233.955 10.1525 232.59 8.91243C231.225 7.67237 229.43 7.02519 227.594 7.11159H226.479Z" fill="#61BFE6"/>
</g>
<g clip-path="url(#clip1_2701_987)">
<path fill-rule="evenodd" clip-rule="evenodd" d="M28.4956 63.7738L23.5797 67.9774C22.9412 66.5304 21.9048 65.2978 20.593 64.4253C19.2812 63.5528 17.7488 63.077 16.1771 63.054C10.7466 63.054 7.60265 65.127 7.60265 71.2596V79.8972C7.60265 82.2005 8.54584 88.2756 14.6908 88.2756C16.4514 88.2699 18.1818 87.8154 19.721 86.9546C21.2603 86.0937 22.5582 84.8545 23.4939 83.3522L28.7243 87.3543C27.2525 89.7148 25.2004 91.6523 22.7667 92.979C20.3331 94.3057 17.6005 94.9765 14.8337 94.9265C12.913 95.0456 10.9885 94.7639 9.18085 94.0989C7.3732 93.434 5.72135 92.4001 4.32878 91.0622C2.93621 89.7242 1.83292 88.111 1.08805 86.3235C0.343171 84.5361 -0.0272439 82.6129 5.13883e-06 80.6746C5.13883e-06 74.4555 0.200074 75.6072 0.200074 69.5321C0.330279 66.1798 1.69724 62.997 4.0336 60.6062C6.36996 58.2153 9.50767 56.7885 12.833 56.6046C15.8553 56.0987 18.9586 56.5103 21.7479 57.787C24.5371 59.0637 26.8861 61.1478 28.4956 63.7738Z" fill="#BEBEBE"/>
<path fill-rule="evenodd" clip-rule="evenodd" d="M68.281 57.2668H75.6835C75.6835 57.2668 75.6835 74.1964 75.6835 78.4C75.6835 82.6036 77.3127 88.3907 83.0004 88.3907C88.6881 88.3907 90.946 85.7707 90.946 78.6015V57.4972H98.3772V94.7249H91.8892V91.3563C88.7784 93.7847 84.9636 95.1196 81.0283 95.1568C77.5762 95.0366 74.3083 93.5586 71.9253 91.0397C69.5423 88.5207 68.234 85.1615 68.281 81.6823C68.281 73.8797 68.1952 57.2668 68.281 57.2668Z" fill="#BEBEBE"/>
<path fill-rule="evenodd" clip-rule="evenodd" d="M206.986 95.1568H199.527C199.527 95.1568 199.527 78.2273 199.527 74.0237C199.527 69.8201 197.898 64.0329 192.21 64.0329C186.522 64.0329 184.264 67.9774 184.264 74.7435V94.8977H176.976V57.6987H183.35V61.0674C183.35 61.0674 185.379 57.0077 193.41 57.2669C195.196 57.1912 196.978 57.4864 198.646 58.1341C200.314 58.7818 201.832 59.7682 203.105 61.032C204.379 62.2958 205.38 63.8099 206.048 65.4802C206.716 67.1506 207.035 68.9414 206.986 70.7414C206.986 78.5152 206.986 95.1568 206.986 95.1568Z" fill="#BEBEBE"/>
<path fill-rule="evenodd" clip-rule="evenodd" d="M44.9871 56.5471H48.817C52.2182 56.5699 55.4719 57.949 57.8663 60.3825C60.2606 62.816 61.6005 66.1059 61.5929 69.5322V81.7975C61.5929 85.2237 60.2457 88.5105 57.8461 90.9386C55.4464 93.3668 52.1896 94.7385 48.7884 94.7538H44.9871C41.5882 94.731 38.3359 93.3568 35.9378 90.9303C33.5397 88.5038 32.1901 85.2214 32.1826 81.7975V69.5322C32.1901 66.1082 33.5397 62.8258 35.9378 60.3993C38.3359 57.9728 41.5882 56.5986 44.9871 56.5759V56.5471ZM45.5016 63.054C43.6049 63.2718 41.8678 64.2277 40.661 65.7177C39.4542 67.2077 38.8733 69.1139 39.0422 71.0293V80.2427C38.8733 82.1582 39.4542 84.0643 40.661 85.5543C41.8678 87.0443 43.6049 88.0002 45.5016 88.218H48.3597C50.2564 88.0002 51.9935 87.0443 53.2003 85.5543C54.407 84.0643 54.988 82.1582 54.8191 80.2427V71.0293C54.988 69.1139 54.407 67.2077 53.2003 65.7177C51.9935 64.2277 50.2564 63.2718 48.3597 63.054H45.5016Z" fill="#BEBEBE"/>
<path fill-rule="evenodd" clip-rule="evenodd" d="M105.465 57.4972V109.668H113.497V92.3928C113.497 92.3928 115.154 95.0128 122.471 95.0128C125.904 94.9888 129.199 93.6472 131.684 91.2613C134.17 88.8754 135.658 85.6248 135.847 82.1717V69.5321C135.847 65.8468 132.732 57.3244 124.415 56.9213C116.098 56.5182 113.697 58.7352 112.668 60.8946V57.382H105.551L105.465 57.4972ZM119.327 63.0828H122.986C124.882 63.3006 126.619 64.2565 127.826 65.7465C129.033 67.2365 129.614 69.1426 129.445 71.0581V80.2715C129.614 82.187 129.033 84.093 127.826 85.5831C126.619 87.0731 124.882 88.029 122.986 88.2468H119.327C117.431 88.029 115.694 87.0731 114.487 85.5831C113.28 84.093 112.699 82.187 112.868 80.2715V71.0581C112.691 69.1379 113.268 67.2244 114.476 65.7281C115.684 64.2317 117.425 63.2717 119.327 63.054V63.0828Z" fill="#BEBEBE"/>
<path fill-rule="evenodd" clip-rule="evenodd" d="M143.164 60.002L146.194 65.0406C148.897 63.3211 152.115 62.6176 155.283 63.054C156.294 63.0376 157.297 63.2404 158.224 63.6486C159.151 64.0568 159.98 64.6609 160.654 65.4199C161.329 66.1789 161.834 67.0751 162.135 68.0479C162.436 69.0206 162.527 70.0472 162.399 71.0581C159.826 69.4818 156.83 68.7476 153.825 68.9563C151.141 68.8747 148.498 69.6415 146.269 71.1493C144.039 72.657 142.334 74.83 141.392 77.3635C140.249 81.999 140.335 92.8247 149.538 94.6385C158.741 96.4524 163 91.3851 163 91.3851V94.8689H169.259V68.3229C169.259 55.0787 150.995 52.8329 143.05 60.0308L143.164 60.002ZM154.339 74.9738H155.283C156.943 74.9738 158.535 75.6381 159.709 76.8206C160.883 78.0031 161.542 79.6069 161.542 81.2792V82.546C161.542 84.2183 160.883 85.8221 159.709 87.0046C158.535 88.1871 156.943 88.8514 155.283 88.8514H154.339C152.682 88.8438 151.094 88.1771 149.922 86.9962C148.75 85.8154 148.088 84.216 148.08 82.546V81.2792C148.08 79.6069 148.74 78.0031 149.913 76.8206C151.087 75.6381 152.679 74.9738 154.339 74.9738Z" fill="#BEBEBE"/>
<path fill-rule="evenodd" clip-rule="evenodd" d="M236.454 59.8869C237.578 58.5421 239.099 57.5936 240.795 57.1794C242.492 56.7651 244.275 56.9067 245.886 57.5836V63.1692C244.856 62.8222 243.755 62.7485 242.688 62.9553C241.622 63.1621 240.626 63.6423 239.798 64.3496C240.652 66.1481 241.101 68.1144 241.113 70.108V70.108C241.197 73.4689 239.958 76.727 237.666 79.1707C235.374 81.6144 232.216 83.0453 228.88 83.1507C224.593 83.1507 223.163 83.4386 219.334 88.909C218.733 90.0607 219.791 89.6 219.791 89.6C224.69 88.0012 229.91 87.6744 234.968 88.6499C237.695 89.1478 240.177 90.5534 242.017 92.6416C243.857 94.7298 244.947 97.3797 245.114 100.167C245.285 106.299 235.968 111.914 235.968 111.914L232.767 106.53C235.825 103.42 239.912 101.347 236.025 97.0571C232.138 92.7671 222.563 95.0993 218.076 96.107C213.589 97.1147 212.588 92.1913 212.988 88.4772C213.355 86.9364 214.025 85.4853 214.958 84.2094C215.89 82.9336 217.067 81.8589 218.419 81.0489C216.647 79.8256 215.199 78.1835 214.202 76.2661C213.206 74.3488 212.691 72.2146 212.703 70.0504C212.618 66.6895 213.857 63.4314 216.149 60.9877C218.441 58.544 221.6 57.1131 224.936 57.0077H228.908C231.634 57.0222 234.271 57.9889 236.368 59.743L236.454 59.8869ZM226.479 63.1116C224.643 63.0252 222.847 63.6724 221.483 64.9124C220.118 66.1525 219.294 67.8852 219.191 69.7337V71.0581C219.294 72.9067 220.118 74.6393 221.483 75.8794C222.847 77.1195 224.643 77.7666 226.479 77.6802H227.594C229.43 77.7666 231.225 77.1195 232.59 75.8794C233.955 74.6393 234.778 72.9067 234.882 71.0581V69.7337C234.778 67.8852 233.955 66.1525 232.59 64.9124C231.225 63.6724 229.43 63.0252 227.594 63.1116H226.479Z" fill="#BEBEBE"/>
</g>
<g clip-path="url(#clip2_2701_987)">
<path fill-rule="evenodd" clip-rule="evenodd" d="M28.4956 119.774L23.5797 123.977C22.9412 122.53 21.9048 121.298 20.593 120.425C19.2812 119.553 17.7488 119.077 16.1771 119.054C10.7466 119.054 7.60265 121.127 7.60265 127.26V135.897C7.60265 138.201 8.54584 144.276 14.6908 144.276C16.4514 144.27 18.1818 143.815 19.721 142.955C21.2603 142.094 22.5582 140.854 23.4939 139.352L28.7243 143.354C27.2525 145.715 25.2004 147.652 22.7667 148.979C20.3331 150.306 17.6005 150.976 14.8337 150.926C12.913 151.046 10.9885 150.764 9.18085 150.099C7.3732 149.434 5.72135 148.4 4.32878 147.062C2.93621 145.724 1.83292 144.111 1.08805 142.324C0.343171 140.536 -0.0272439 138.613 5.13883e-06 136.675C5.13883e-06 130.456 0.200074 131.607 0.200074 125.532C0.330279 122.18 1.69724 118.997 4.0336 116.606C6.36996 114.215 9.50767 112.788 12.833 112.605C15.8553 112.099 18.9586 112.51 21.7479 113.787C24.5371 115.064 26.8861 117.148 28.4956 119.774Z" fill="#443E3E"/>
<path fill-rule="evenodd" clip-rule="evenodd" d="M68.281 113.267H75.6835C75.6835 113.267 75.6835 130.196 75.6835 134.4C75.6835 138.604 77.3127 144.391 83.0004 144.391C88.6881 144.391 90.946 141.771 90.946 134.602V113.497H98.3772V150.725H91.8892V147.356C88.7784 149.785 84.9636 151.12 81.0283 151.157C77.5762 151.037 74.3083 149.559 71.9253 147.04C69.5423 144.521 68.234 141.162 68.281 137.682C68.281 129.88 68.1952 113.267 68.281 113.267Z" fill="#443E3E"/>
<path fill-rule="evenodd" clip-rule="evenodd" d="M206.986 151.157H199.527C199.527 151.157 199.527 134.227 199.527 130.024C199.527 125.82 197.898 120.033 192.21 120.033C186.522 120.033 184.264 123.977 184.264 130.743V150.898H176.976V113.699H183.35V117.067C183.35 117.067 185.379 113.008 193.41 113.267C195.196 113.191 196.978 113.486 198.646 114.134C200.314 114.782 201.832 115.768 203.105 117.032C204.379 118.296 205.38 119.81 206.048 121.48C206.716 123.151 207.035 124.941 206.986 126.741C206.986 134.515 206.986 151.157 206.986 151.157Z" fill="#443E3E"/>
<path fill-rule="evenodd" clip-rule="evenodd" d="M44.9871 112.547H48.817C52.2182 112.57 55.4719 113.949 57.8663 116.382C60.2606 118.816 61.6005 122.106 61.5929 125.532V137.797C61.5929 141.224 60.2457 144.511 57.8461 146.939C55.4464 149.367 52.1896 150.739 48.7884 150.754H44.9871C41.5882 150.731 38.3359 149.357 35.9378 146.93C33.5397 144.504 32.1901 141.221 32.1826 137.797V125.532C32.1901 122.108 33.5397 118.826 35.9378 116.399C38.3359 113.973 41.5882 112.599 44.9871 112.576V112.547ZM45.5016 119.054C43.6049 119.272 41.8678 120.228 40.661 121.718C39.4542 123.208 38.8733 125.114 39.0422 127.029V136.243C38.8733 138.158 39.4542 140.064 40.661 141.554C41.8678 143.044 43.6049 144 45.5016 144.218H48.3597C50.2564 144 51.9935 143.044 53.2003 141.554C54.407 140.064 54.988 138.158 54.8191 136.243V127.029C54.988 125.114 54.407 123.208 53.2003 121.718C51.9935 120.228 50.2564 119.272 48.3597 119.054H45.5016Z" fill="#443E3E"/>
<path fill-rule="evenodd" clip-rule="evenodd" d="M105.465 113.497V165.668H113.497V148.393C113.497 148.393 115.154 151.013 122.471 151.013C125.904 150.989 129.199 149.647 131.684 147.261C134.17 144.875 135.658 141.625 135.847 138.172V125.532C135.847 121.847 132.732 113.324 124.415 112.921C116.098 112.518 113.697 114.735 112.668 116.895V113.382H105.551L105.465 113.497ZM119.327 119.083H122.986C124.882 119.301 126.619 120.256 127.826 121.747C129.033 123.237 129.614 125.143 129.445 127.058V136.271C129.614 138.187 129.033 140.093 127.826 141.583C126.619 143.073 124.882 144.029 122.986 144.247H119.327C117.431 144.029 115.694 143.073 114.487 141.583C113.28 140.093 112.699 138.187 112.868 136.271V127.058C112.691 125.138 113.268 123.224 114.476 121.728C115.684 120.232 117.425 119.272 119.327 119.054V119.083Z" fill="#443E3E"/>
<path fill-rule="evenodd" clip-rule="evenodd" d="M143.164 116.002L146.194 121.041C148.897 119.321 152.115 118.618 155.283 119.054C156.294 119.038 157.297 119.24 158.224 119.649C159.151 120.057 159.98 120.661 160.654 121.42C161.329 122.179 161.834 123.075 162.135 124.048C162.436 125.021 162.527 126.047 162.399 127.058C159.826 125.482 156.83 124.748 153.825 124.956C151.141 124.875 148.498 125.642 146.269 127.149C144.039 128.657 142.334 130.83 141.392 133.363C140.249 137.999 140.335 148.825 149.538 150.639C158.741 152.452 163 147.385 163 147.385V150.869H169.259V124.323C169.259 111.079 150.995 108.833 143.05 116.031L143.164 116.002ZM154.339 130.974H155.283C156.943 130.974 158.535 131.638 159.709 132.821C160.883 134.003 161.542 135.607 161.542 137.279V138.546C161.542 140.218 160.883 141.822 159.709 143.005C158.535 144.187 156.943 144.851 155.283 144.851H154.339C152.682 144.844 151.094 144.177 149.922 142.996C148.75 141.815 148.088 140.216 148.08 138.546V137.279C148.08 135.607 148.74 134.003 149.913 132.821C151.087 131.638 152.679 130.974 154.339 130.974Z" fill="#443E3E"/>
<path fill-rule="evenodd" clip-rule="evenodd" d="M236.454 115.887C237.578 114.542 239.099 113.594 240.795 113.179C242.492 112.765 244.275 112.907 245.886 113.584V119.169C244.856 118.822 243.755 118.748 242.688 118.955C241.622 119.162 240.626 119.642 239.798 120.35C240.652 122.148 241.101 124.114 241.113 126.108V126.108C241.197 129.469 239.958 132.727 237.666 135.171C235.374 137.614 232.216 139.045 228.88 139.151C224.593 139.151 223.163 139.439 219.334 144.909C218.733 146.061 219.791 145.6 219.791 145.6C224.69 144.001 229.91 143.674 234.968 144.65C237.695 145.148 240.177 146.553 242.017 148.642C243.857 150.73 244.947 153.38 245.114 156.167C245.285 162.299 235.968 167.914 235.968 167.914L232.767 162.53C235.825 159.42 239.912 157.347 236.025 153.057C232.138 148.767 222.563 151.099 218.076 152.107C213.589 153.115 212.588 148.191 212.988 144.477C213.355 142.936 214.025 141.485 214.958 140.209C215.89 138.934 217.067 137.859 218.419 137.049C216.647 135.826 215.199 134.183 214.202 132.266C213.206 130.349 212.691 128.215 212.703 126.05C212.618 122.69 213.857 119.431 216.149 116.988C218.441 114.544 221.6 113.113 224.936 113.008H228.908C231.634 113.022 234.271 113.989 236.368 115.743L236.454 115.887ZM226.479 119.112C224.643 119.025 222.847 119.672 221.483 120.912C220.118 122.152 219.294 123.885 219.191 125.734V127.058C219.294 128.907 220.118 130.639 221.483 131.879C222.847 133.119 224.643 133.767 226.479 133.68H227.594C229.43 133.767 231.225 133.119 232.59 131.879C233.955 130.639 234.778 128.907 234.882 127.058V125.734C234.778 123.885 233.955 122.152 232.59 120.912C231.225 119.672 229.43 119.025 227.594 119.112H226.479Z" fill="#443E3E"/>
</g>
<defs>
<clipPath id="clip0_2701_987">
<rect width="246" height="56" fill="white"/>
</clipPath>
<clipPath id="clip1_2701_987">
<rect width="246" height="56" fill="white" transform="translate(0 56)"/>
</clipPath>
<clipPath id="clip2_2701_987">
<rect width="246" height="56" fill="white" transform="translate(0 112)"/>
</clipPath>
</defs>
</svg>
